<?xml version="1.0" encoding="UTF-8"?>
<svg version="1.1" viewBox="0 0 2048 1525" width="1280" height="1280" xmlns="http://www.w3.org/2000/svg">
<path transform="translate(0)" d="m0 0h2048v1525h-2048z" fill="#FCF1F2"/>
<path transform="translate(1149,687)" d="m0 0h16l19 2 18 4 15 7 12 7 12 11 7 11 6 6 7-1 2-4 12-17 9-8 16-8 16-4 16-2 16-1h43l-2 5-10 14-11 16-9 15-10 18-10 19-13 28-7 17-5 11-11 28-11 29-6 16-7 20-7 19-7 21-8 21-7 20-11 28-15 40-6 13-10 23-13 28-12 22-14 24-11 15-7 9-11 13-12 13-12 11-12 10-14 11-17 12-14 8-27 14-28 11-17 4-19 3-13 1h-19l-21-2-21-5-17-7-13-12-7-11-4-10-1-10v-17l4-16 8-16 9-10 7-6 12-6 6-2h17l13 4 11 6 3 3 1 5-2 4-5 5-6 12-6 18-1 4v10l5 12 4 6 5 4 11 4 5 1h16l14-3 17-5 16-9 13-11 9-10 8-10 6-8 13-18 10-15 13-22 16-32 12-28 12-32 7-20 6-17 8-23 8-21 11-32 10-27 6-18 8-21-3-1 1-3h2l3-10v-3l-6 9-11 21-8 13-12 20-7 11-9 13-7 10-9 13-12 14-7 8-14 15-7 7-11 9-9 8-11 7-10 6-19 9-16 5-9 2h-26l-16-4-10-4-7-8-6-4-6-9-5-12-5-21-2-20-1-36-1-10-8 7-9 17-10 13-7 8h-2l-2 4-8 8-7 8-13 13-11 9-14 11-29 17-20 9-12 4-14 3-10 2-19 2-21 1-21-2-20-4-19-6-17-9-12-9-7-6v-2l-4-2-8-10-8-13-4-8-5-15-5-26-1-10v-32l3-21 6-25 7-21 12-27 11-21 11-16 8-12 9-12 5-7 5-4 7-9 7-6 7-8 15-13 17-12 16-10 19-10 19-7 30-7 14-2h37l17 3 13 4 13 7 10 8 10 9 9 13 6 12 4 17v22l-6 19-8 16-8 12-12 13-15 12-22 13-25 10-16 5-22 4-17 2-16 1h-38l-5-2-12-2-4-2-10-1-4 4-5 16-5 19-5 26-1 10v22l5 24 5 13 7 13 7 7 14 8 13 4 11 1h11l21-3 27-9 14-7 19-12 9-7 14-12 12-11 8-7 11-11 21-24 9-13 5-6 6-10 10-16 9-15 10-21 5-8 9-19 22-34 9-14 9-12 9-11 7-9 5-4 9-11 4-3h2l2-4 7-7 9-7 11-8 16-10 16-8 20-8 21-5z" fill="#CB1314"/>
<path transform="translate(1582,687)" d="m0 0h26l20 3 15 5 16 9 12 9 8 7 8 13 4 4 5-1 6-5 7-9 13-13 13-9 12-6 12-3 9-1h55l-4 10-10 13-10 15-8 14-11 19-14 27-12 26-19 44-12 31-14 41-2 12-4 14-2 11v29l8 11 5 3h9l13-5 18-11 13-12 11-11 6-8 9-10 9-14 5-5 7-11 7-10 10-17 5-7 4-8 10-16 9-15 9-12 5-4 4 2 2 5-1 11-4 21-8 17-6 12-7 10-10 17-11 16-19 28-10 13-13 16-14 17-12 14-8 9-8 7-11 10-14 11-19 12-17 7-15 4h-15l-16-5-10-5-5-4-11-19-6-23-1-6v-32l3-34 2-15 5-31 1-3v-7l-3 1-10 19-11 19-6 10-7 10-12 16-10 14-10 12-7 9-7 7-7 8-7 7-11 9-9 8-18 12-21 11-20 7-12 2h-17l-18-4-12-6-13-13-10-19-6-22-1-6v-35l4-34 5-27 6-23 8-24 11-26 8-16 9-17 16-24 10-14 10-12 1-2h2l2-4 17-17 8-7 9-8 13-10 13-8 12-7 19-8 19-6 17-3z" fill="#CB1314"/>
<path transform="translate(888,384)" d="m0 0 2 1 2 5v8l-4 16-6 10-8 8-13 10-16 8-14 5-18 5-26 5-21 2h-60l-70-3-20-1h-13l-7 3-6 8-8 15-12 22-14 27-18 37-15 33-14 30-10 23-11 26-17 41-16 40-15 40-10 28-12 36-7 24-6 25-4 20-2 15v17l3 20 7 13 9 7 7 2 12-1 11-3 10-7 11-9 11-11 7-8 9-11h2l2-4 3-4h2l1-3 9-9h5l2 4v11l-3 11-14 27-11 15-9 13-10 13-11 12-10 10-8 7-18 14-14 9-12 7-21 7-9 2-19 2-19-1-10-4-11-6-9-10-7-12-5-20-1-7v-28l4-30 7-34 8-32 9-30 13-40 9-25 15-40 11-27 10-25 13-31 14-32 8-18 11-25 14-30 9-20 22-45 14-29 14-28 10-19 1-5h-37l-39-1h-48l-39 2-27 3-36 7-19 5-24 8-19 10-10 7-13 12-8 9-6 10-7 16-2 9v19l7 36 1 6-4 3-9 1-9-4-4-5-7-16-7-27-1-7v-25l5-27 6-17 8-16 12-16 17-17 19-13 16-8 18-8 31-10 28-7 26-4 23-2 24-1h57l46 2 41 3 65 6 77 5 83 4h44l40-3 19-3 18-6 16-8z" fill="#CB1314"/>
<path transform="translate(881,729)" d="m0 0 6 1 6 5 1 2h5l4-2 5 10 4 12 2 13-1 18-1 6-6 17-6 13-3 7-11 13-11 10-13 9-17 10-25 10-16 5-22 4-17 2-16 1h-38l-5-2-12-2-4-2-10-1-4 4-5 16-5 19-5 26-1 10v22l5 24 5 13 7 13 7 7 14 8 13 4v2h27l11-1-1 2-15 3-19 2-12 1-6 3-3 2-5 2h-3v2l-4 2h-13l-10 1-5-1v-2l-13-1-10-4-3-2v-2l-4-1-6-5v-2h-4v-2l-4-2-5-3-1-4-3-1-1-5-7-2-1-3-4 3-2-5 2-6v-8l-2-3-3-20-1-1-2-11v-13l-3-1v-11l1-4v-6l1-1v-14l1-5v-2h-3v-2h2l2-20 1-9 6-18 7-16 5-12 6-1 3 3 1-3 2-1-1-2h3l2-5 2-2 2-4 4-5 2-4 3-1 5-8h2v-6l4-4h2v-2h2l2-4 8-10 8-6 5-1 2-4 4-4 6-2 7 1 11-2 1 3 5-1 7-3 5 1 1 3 6 1h9l-1 7-4 9h-2l-4 8-1 10-8 14-5 13h-2v16l3 7 6 4 7 3 5 1h23l18-4 17-6 12-6 12-9 11-9 10-10 2-3h2l2-4 10-13h2l2-5 8-16 4-9 3-14 1-14 2 1 1 9h2v-2l5 1 2-16 4-8z" fill="#CB1314"/>
<path transform="translate(1062,747)" d="m0 0 10 2 1 4h7l8-1 7-1-1 3-3 1 9 1 7-3 5 1 2 1v6l-4 8-5 5-4 9-1 5-8 9-14 20-16 25-12 21-9 18-2 1-9 20-10 29-3 14-2 18v18l3 17 5 5 7 5 11 1 16-4 15-6 12-8 5-5 2 1-6 7-2 4 5-1 10-4h8l3 5 2 3 7 2 1 4-9 11-7 7-7 8-10 10-5 4-7 4-7 6h-5l-1 2-8 6-3 3-5 2-3 1-3 3-13 6-8 3h-5l-2 1h-9l-10 2h-10l-15-3-4 1-8-4-5-2-12-14-2-4 1-2v-5h-2l-2-3v-3h-2l-2-7-2 3-4-20-3-27-1-27-2-8-1-2h-3l-2 2-2-5-4-5v-5l5-10v-5l-1-4 5-7 2-1 8-17 4-6 5-12 6-11 7-10 3-10 3-5 10-2 1-3h2v-3l4-4 4-7 2-1v-2h3v-3h2l1-4 4-2 4-8 4-6 7-6 1-2h2l2-7 3-1 2-4 5-6 11-9 11-8 5-5 5-4 4-1 5-2 6 1z" fill="#CB1314"/>
<path transform="translate(1477,756)" d="m0 0h4l2 2 11 1v2l-6 1v3l2-1 11 1 7-2 4-2h3v2l5-2 13-2 7-3h7l1 5-2 5h-2l-6 12-2 7h-2l-1 4-2 1-3 1-2 9-11 14-10 16-7 11-12 20-11 23-6 13h-2l-3 10-6 16-5 20-3 20v17l3 16 4 6 11 6h13l13-4 12-4 9-6 10-7 5-5-2 5-1 3-4 3 3 2 5-3 6-2h10l5 3-1 9 2 2-1 4-9 11-7 7-7 8-3 3h-3v-2h-2v-2l-6 2-3 3h-2l-1 4h-3l-1 2-5 2-5 1-7 4-10 6h-3v2l-22 8-21 6-15 1-1-1-9-2-6-5-10-6-10-7-5-5v-2l-2-1-2-5-5-12-2-15-1-10-1-3 1-11h-2l1 7-1 1-1 14-2 6h-1l-1 5h-1l-1-6v-25l2-21 4-27 5-23 7-27 6-17 12-28 8-15 6-12 7-10 6-10 4-1 3 3 2 1v-2l2-1 1-3 7-4 3-7 10-8 7-6h2l1-3h2l1-3 8-7z" fill="#CB1314"/>
<path transform="translate(1194,724)" d="m0 0h10l16 2 15 6 10 8 4 5 1 7-5 15-9 16-6 9-11 18-14 22-10 16-7 10-13 22-11 16-9 13-8 11-13 17-11 13-5 5-9 10-15 15h-2v2l-10 8-11 8-12 5-10 3-16 1-11-6-4-7-2-16v-17l4-24 5-16 7-22 13-28 10-19 9-15 20-30 9-12 14-17 16-17 10-9 10-8 16-9 24-9z" fill="#FCF1F2"/>
<path transform="translate(1628,725)" d="m0 0h12l14 2 10 4 10 5 10 8v11l-4 11-13 22-13 21-12 20-14 22-10 16-6 9-7 12-7 10-6 10-10 13-7 9-6 8-12 14-31 31-11 9-11 7-14 5-5 2-15 1-12-6-5-10-2-14v-11l1-10 1-2 2-15 7-25 6-17 7-15 10-21 18-30 10-15 8-11 10-13 11-13 7-8 8-9 11-9 10-8 18-10 16-6 9-3z" fill="#FCF1F2"/>
<path transform="translate(797,693)" d="m0 0h37l17 3 13 4 13 7 10 8 10 9 9 13 6 12 4 17v22l-6 19-8 16-3 3 2-6 8-19 3-10v-10l1-11-2-13-5-15-4-6-3 2-5-1-2-1v-2l-8-4-5 1-3 7-3 16-5-1v2h-2l-2-9-2 18-3 12-8 16-6 11-5 5-9 12-17 17-17 13-10 6-19 7-15 4-6 1h-23l-9-3-8-4-4-5-1-4v-12l1-4h2l1-6 8-16 3-5 1-10 5-8h2l3-9 2-7-11 1-4-2-3-3-9 2-2 2-5-1v-3l-5 2-8 1-6-1-6 3-5 6-8 4-7 6-6 8-2 3h-2v2l-5 4-1 6h-2l-2 4-3 5-4 2-2 4-2 5-5 5-4 7h-2l-1 4-3-2v-2l-6 1-3 9-12 30-3 12-1 12-2 12h-2v2h3l1 6-1 4v11l-1 1v7l-1 3v11l3 3v12l2 10 1 1 3 20 2 3v10l-2 6 1 2 4-2 1 2 5 2 2 1v4l4 2 2 4 8 5v2h4l5 5 5 3 3 3 10 4 13 2v2l4-1 5 1 7-1h12l4-1v-2l10-4 2-2 5-2 13-1 20-2 13-3 4-2 9-1-2 2h-3l-1 3-5 2-14 4-5 5v4l-9 7-17 3-16 2h-11l-12-2-8-1v-2h-10l-2-2-9-2-7-3-12-7-10-7v-3l-5-2-7-2-8-11-7-12-6-18-5-26-1-10v-32l3-21 6-25 7-21 12-27 11-21 11-16 8-12 9-12 5-7 5-4 7-9 7-6 7-8 15-13 17-12 16-10 19-10 19-7 30-7z" fill="#DE1616"/>
<path transform="translate(1582,687)" d="m0 0h26l20 3 15 5 16 9 12 9 8 7 8 13 4 4 5-1 6-5 7-9 13-13 13-9 12-6 12-3 9-1h55l-4 10-10 13-10 15-8 14-8 13-3-1-1-7v-4l-10 1-4-3 2-8h-7l-5-3-5-1-4-1-7 1-4 1v2h-2v2l-12 5-6 3-3 5-15 5-5 1v-2l-3-2-1-3-2-1v10l-6 16-10 15-7 12-8 13-6 10-5 7-6 11-10 15-6 12h-2l-2 4-6 11-1 3h-2l-2 4-5 6h3l2 3 1 11-1 4 3 3 6-10 2-4 4 1 1 9-4 26-4 20-3 28-1 13v26l3 5 6 24 3 1v2l4 2-1 2 1 1 2 5h2l1 3 2 1 1 3 2 2v3h2v2h2v2l7-1h10l1 1 8 1 27-4 9-3h3l1-2 4 1 4-1-3 3-12 7-17 6-11 3h-15l-16-5-10-5-5-4-11-19-6-23-1-6v-32l3-34 2-15 5-31 1-3v-7l-3 1-10 19-11 19-6 10-7 10-12 16-10 14-6 7-4-3v-5l1-4-4-2h-10l-10 4h-3l-2-2 5-6 1-3-5 5-13 10-10 4-14 5-5 1h-13l-12-7-4-6-3-16v-17l4-25 7-24 7-17 1 3-6 17-7 27-1 10-1 2-1 10v11l3 17 3 6 12 6 15-1 19-7 11-7 15-13 30-30 8-10 6-8 8-10 9-12 10-16 9-14 6-10 10-15 7-12 6-9 11-18 17-28 12-20 4-11v-11l-12-9-13-6-8-2-10-1h-12l-10 2-22 8-11 6-11 7-14 12-5 4-7 8-8 9-8 10-5 5-1-3 5-6 2-1 1-3 2-3 4-10 4-5h2l1-10-10 2-7 3-10 1-5 1v-2l-9 4-5 1-11-1h-2v-3l6-1v-2h-12l-4-2-10 6-6 7-6 5-2 2-7 6-5 4h-2l-2 7-5 4h-3l-1 4h-2v2l-5-2v-2l-4 2-9 15-5 7-9 19-7 14-12 29-7 25-6 26-4 26-2 15-1 13v25l3-1 2-13v-6l1-1v-6h2v12l2 8 1 14 4 13 4 7 1 5 4 2 5 5 6 4 13 8 5 4 7 1 4 1 16-2 10-3 9-3 17-6h3v-2l11-6 6-3 5-3 6-1 3-2h3l1-4h2l2-4 5-1 4-2v2h-2v2h2v2l2 1-10 9-8 7-18 13-16 9-15 7-15 5-12 2h-17l-18-4-12-6-13-13-10-19-6-22-1-6v-35l4-34 5-27 6-23 8-24 11-26 8-16 9-17 16-24 10-14 10-12 1-2h2l2-4 17-17 8-7 9-8 13-10 13-8 12-7 19-8 19-6 17-3z" fill="#F31A16"/>
<path transform="translate(1149,687)" d="m0 0h16l19 2 18 4 15 7 12 7 12 11 7 11 6 6 7-1 2-4 12-17 9-8 16-8 16-4 16-2 16-1h43l-2 5-8 11-2-1 1-12 1-1h-23l-22 1-29 4-12 5-6 3-4 4-4 3h-2l1 2h2l1-3h1v5l-1 3-2 1-1 3h-5v-3l-3 4h-2l-1 5-4 4h-2l-2 6-2 4-4 1-2-2-2 15-5 13-6 10-9 14-5 9-6 8-3 5-2 6h-2l-2 5-7 10-2 5-4 4-7 10-3 9-2 4-4 2-4 6-1-2 13-22 8-11 14-23 14-22 8-13 9-15 5-13 1-7-3-7-8-7-8-4-10-4-16-2h-10l-14 3-23 9-17 10-14 13-8 7-12 13-5 5-1-3 5-9 3-1 2-4 3-7 1-6-7-1-7 3-10-1 1-2 3-1 1-2-7 2-15 1-2-5h-7-4l-7 1-5 2-5 3-5 5-18 14h-2l-1 3-5 5-4 5-2 1-3 7h-2l-2 4h-2l-1 3-5 5v2h-2l-2 6-3 4h-3l-1 4h-2v3h-3l1 3h-3l-5 10-3 1v3l-2 2-1 2-10 2-5 12-2 5-7 10-7 16-3 5-8 16-4 7h-2l-2 5-2 2 1 9-5 10 1 7 5 6 4-1 3 5 1 6 1 27 3 27 3 15 3 2 1 7h2l2 6h2l1 6v3l4 6 3 3 5 6 5 2 8 4 6-1 14 3h9l10-2h9l2-1 7-1 13-5 6-2 1-2 3-3h2l5-2 7-6 3-1 1-2 6-2 7-6 4-3 2 1-11 10-14 9-10 6-19 9-16 5-9 2h-26l-16-4-10-4-7-8-6-4-6-9-5-12-5-21-2-20-1-36-1-10-8 7-9 17-10 13-7 8h-2l-2 4-8 8-7 8-13 13-11 9-14 11-29 17-20 9-12 4-14 3-10 2-19 2-21 1-21-2-20-4-19-6-17-9-12-9-7-6v-2l-4-2-2-4 7 1 3 2v3l4 2 11 7 8 5 9 3 7 2 4 1 7 1v2l3-1 5 1 12 2h12l23-3 9-2 7-6h2l-1-6 8-5 14-4 3-1 1-2 2-1-20 3h-18l-9-1v-1h22l21-3 27-9 14-7 19-12 9-7 14-12 12-11 8-7 11-11 21-24 9-13 5-6 6-10 10-16 9-15 10-21 5-8 9-19 22-34 9-14 9-12 9-11 7-9 5-4 9-11 4-3h2l2-4 7-7 9-7 11-8 16-10 16-8 20-8 21-5z" fill="#DE1616"/>
<path transform="translate(888,384)" d="m0 0 2 1 2 5v8l-4 16-6 10-8 8-13 10-16 8-14 5-18 5-26 5-21 2h-60l-70-3-20-1h-13l-7 3-3 2 2-4 7-3h27l43 2h29l6-1h8v-2l23-3 20-3 15-3 13-3 22-5 10-4 12-6 2-5-11-3-6-3-2-4 1-2h3v-2l6-1v-2l11-3 1-2-16 2-32 2h-49l-63-3-103-6-57-6-49-3-33-1h-59l-43 2-2 2 8 2v1l8 1-1 4-17 4-9 2h-6l-4 4h-2v2h-3l-1 3-3 3h5l-1 4-3 4h2l-2 4-3 3-4 2-2 4-5 3-1 2 9-2h2v-2h3v-2l5-1 4 4h2v-2h21v1l13 1 9-1 7-1v2l7 1 8-1h27l13-1 4 1 10-1 9 2h13l10 2 14 3h13l3 2 14 2 2 2h-37l-39-1h-48l-39 2-27 3-36 7-19 5-24 8-19 10-10 7-13 12-8 9-6 10-7 16-2 9v19l7 36 1 6-4 3-9 1-9-4-4-5-7-16-7-27-1-7v-25l5-27 6-17 8-16 12-16 17-17 19-13 16-8 18-8 31-10 28-7 26-4 23-2 24-1h57l46 2 41 3 65 6 77 5 83 4h44l40-3 19-3 18-6 16-8z" fill="#DE1616"/>
<path transform="translate(1197,884)" d="m0 0h2l-1 10-5 16-28 78-9 27-6 15-9 27-7 20-7 19-8 20-7 17-12 26-12 25-5 8-1 3h-2l-2 7h-2l-2 5-6 8-7 9-9 13-8 11-8 8-1 2 8-6 5-5h2v-2h2l1 3-3 5h-2l-1 6-3 1-2 5-5 10 9-1 15-3 8-3 6-6h2v-2l11-4 10-6h2v-2l10-6 10-7 4 2-6 7-10 9-9 7-13 10-21 14-33 17-28 11-17 4-19 3-13 1h-19l-21-2-21-5-17-7-13-12-7-11-4-10-1-10v-17l4-16 8-16 9-10 7-6 12-6 6-2h17l13 4 11 6 3 3 1 5-2 4-5 5-6 12-6 18-1 4v10l5 12 4 6 5 4 11 4 5 1h16l14-3 17-5 16-9 13-11 9-10 8-10 6-8 13-18 10-15 13-22 16-32 12-28 12-32 7-20 6-17 8-23 8-21 11-32 10-27 6-18 8-21-3-1 1-3h2l3-10v-3l-6 9-7 14-1-3 9-17 5-7z" fill="#F31A16"/>
<path transform="translate(830,723)" d="m0 0h14l11 7 4 5 2 6v20l-4 15-11 21-13 17-16 17-11 10-16 11-10 5-21 7-12 2h-25l-12-5-5-5-2-7 1-13 7-17 10-17 9-11 11-12 14-15 14-12 11-8 14-8 10-5 14-5z" fill="#FCF1F2"/>
<path transform="translate(412,639)" d="m0 0 2 2-2 6v5l1 2-1 2h-2v7l-13 30-12 28-16 39-6 15-18 47-11 31-12 36-9 29-8 31-7 32-4 23-2 17v28l4 20 4 11 4 6 3 7 1 3 4 2 5 4 6 3v2h5l3 5v6l-4 3-3 5-5 3-10-2-7-4-11-8-7-6-7-9-6-10-4-13-1-5-1-14v-54l2-17 3-15 2-11 3-10 2-7 7-26 3-15 4-11 4-14 4-9 3-9 6-11 4-15 8-16 2-6 4-8 3-8 3-1 1-8 3-3 3-6 4-3-1-6 4-4 3 2v-4l5-5 5-13 3-4 3-9 7-13 3-10 4-6 4-7 7-12 4-11 2-10 9-16 5-7z" fill="#FEFDFD"/>
<path transform="translate(1585,688)" d="m0 0h18l2 2-7 3-18 1-5 2v2l5 3h7l10 3h14l8 2 1 3-2 3-6 1v2l-6 3h-2l-2 5-7 3-7 2v5l1 5-8 5-4 4-9 7-13 11-7 8-8 9-8 10-5 5-1-3 5-6 2-1 1-3 2-3 4-10 4-5h2l1-10-10 2-7 3-10 1-5 1v-2l-9 4-5 1-11-1h-2v-3l6-1v-2h-12l-4-2-10 6-6 7-6 5-2 2-7 6-5 4h-2l-2 7-5 4h-3l-1 4h-2v2l-5-2v-2l-4 2-9 15-5 7-9 19-7 14-12 29-7 25-6 26-4 26-2 15-1 13v25l3-1 2-13v-6l1-1v-6h2v12l2 8 1 14 4 13 4 7 1 5 4 2 5 5 6 4 13 8 5 4 7 1 4 1 16-2 10-3 9-3 17-6h3v-2l11-6 6-3 5-3 6-1 3-2h3l1-4h2l2-4 5-1 4-2v2h-2v2h2v2l2 1-10 9-8 7-18 13-16 9-15 7-15 5-12 2h-17l-18-4-12-6-13-13-10-19-6-22-1-6v-35l4-34 5-27 6-23 8-24 11-26 8-16 9-17 16-24 10-14 10-12 1-2h2l2-4 17-17 8-7 9-8 13-10 13-8 12-7 19-8 9-3 30-5z" fill="#DE1616"/>
<path transform="translate(1054,722)" d="m0 0 2 1-11 10-10 7-7 9-6 4-3 4-1 4-3 3-3 1-6 7-4 6-5 6h-2l-1 5h-2l-2 7h-3l-1 4h-3v3l-4 4-3 7-3 3-1 3-5 5-2 6h-2l-1 8h-3v3l-3 1-7 12-3 9-7 11-7 14-3 7-5 8-8 16h-2l-2 5-2 2 1 9-5 10 1 7 5 6 4-1 3 5 1 6 1 27 3 27 3 15 3 2 1 7h2l2 6h2l1 6v3l4 6 3 3 5 6 5 2 8 4 6-1 14 3h9l10-2h9l2-1 7-1 13-5 6-2 1-2 3-3h2l5-2 7-6 3-1 1-2 6-2 7-6 4-3 2 1-11 10-14 9-10 6-19 9-16 5-9 2h-26l-16-4-10-4-7-8-6-4-6-9-5-12-5-21-2-20-1-36-1-10-8 7-9 17-10 13-7 8h-2l-2 4-8 8-7 8-13 13-11 9-14 11-29 17-20 9-12 4-14 3-10 2-19 2-21 1-21-2-20-4-19-6-17-9-12-9-7-6v-2l-4-2-2-4 7 1 3 2v3l4 2 11 7 8 5 9 3 7 2 4 1 7 1v2l3-1 5 1 12 2h12l23-3 9-2 7-6h2l-1-6 8-5 14-4 3-1 1-2 2-1-20 3h-18l-9-1v-1h22l21-3 27-9 14-7 19-12 9-7 14-12 12-11 8-7 11-11 21-24 9-13 5-6 6-10 10-16 9-15 10-21 5-8 9-19 22-34 9-14 9-12 9-11 7-9 5-4 9-11 4-3h2l2-4 7-7 9-7z" fill="#F31A16"/>
<path transform="translate(515,945)" d="m0 0h5l2 4v11l-3 11-14 27-11 15-9 13-10 13-11 12-10 10-8 7-18 14-14 9-12 7-21 7-9 2-19 2-19-1-10-4-11-6-9-10-7-12-5-20-1-7v-28l4-30h1v6h2l1-9 4-2 3-1 2-6 2 4v5l-1 5v7h-2v9l-1 3 1 2-1 7v10l1 11 5 16 3 9 11 2 3 3 5 2 3 3 2 5 9 3 15 1 6 2 21-2 13-3 3-1 1-3 6-3 9-3 6-7 5-5h2v-2l7-3 4-5h2l1-4 5-5-3-9-2-4h-7l-3-3v-2l6-3 5-8-8 1 3-2 11-6 14-12 10-10 7-8 9-11h2l2-4 3-4h2l1-3 5-5z" fill="#DF1616"/>
<path transform="translate(900,1192)" d="m0 0h9l5 2 7 1-3 2 2 1 2 9 4 2 2 3 2 14-6 16-2 7v13l5 13 6 8 9 4 7 2 10 1 15-1 7-2h5l-4 2-4 3-12 4-6 1h-6l-10 2v4h-2v2l-5 4-12 1-13-1-15-5-10-4-6-7-3-2-3-5v-3h-2l-6-13-2-6v-16l2-5 1-10 5-12h2v-3h2l2-5h3l1-3 2-1 1-3 9-2-1-5-7 3h-6l5-5 9-4z" fill="#DE1615"/>
<path transform="translate(1759,799)" d="m0 0 1 2-11 24-15 36-10 25-14 42-2 10-5 18-2 11v29l8 11 5 3h9l13-5 18-11 13-12 11-11 6-8 9-10 9-14 5-5 7-11 7-10 10-17 5-7 4-8 10-16 9-15 9-12 5-4 4 2 2 5-1 11-4 21-8 17-6 12-7 10-10 17-11 16-19 28-10 13-13 16-8 10h-3-3l-1-5v-2l-11 1-2 1-8-1v-4l3-5-1-1-11 8-14 7-12 4h-5l-8-6-9-11-1-4v-25l6-24 7-26 6-18 8-21 6-15 6-14 9-20 8-19z" fill="#F31A16"/>
<path transform="translate(888,384)" d="m0 0 2 1 2 5v8l-4 16-6 10-8 8-13 10-16 8-14 5-18 5-26 5-21 2h-60l-70-3-20-1h-13l-7 3-3 2 2-4 7-3h27l43 2h29l6-1h8v-2l23-3 20-3 15-3 13-3 22-5 10-4 12-6 2-5-11-3-6-3-2-4 1-2h3v-2l6-1v-2l11-3 1-2-16 2-32 2h-49l-63-3-103-6-57-6-49-3-33-1h-59l-46 2-27 4h-5l4-2 26-4 23-2 24-1h57l46 2 41 3 65 6 77 5 83 4h44l40-3 19-3 18-6 16-8z" fill="#F31A16"/>
<path transform="translate(797,693)" d="m0 0h37l17 3 13 4 13 7 10 8 10 9 9 13 6 12 4 17v22l-6 19-8 16-3 3 2-6 8-19 3-10v-10l1-11-2-13-5-15-4-6-3 2-5-1-2-1v-2l-8-4-5 1-3 7-3 16-5-1v2h-2l-2-9-2 18-3 12-8 16-6 11-5 5-9 12-17 17-17 13-10 6-19 7-15 4-6 1h-23l-9-3-8-4-4-5-1-4v-12l2-4v13l3 9 12 6 3 1h25l15-3 21-7 13-8 12-9 10-9 7-7 7-8 13-17 11-21 4-15v-20l-4-9-10-7-2-1h-14l-19 5-15 7-13 7-14 10-10 9-8 7-3 2 2-4 2-2 1-6h2v-3l5-1 2-6 3-3 1-2h2l4-8 9-4 3-5 5-1v-2l14-8 5-2-1-3h-9l-8 1v-2l-29 4-15 4-3-1 1-3 8-4 15-6 3-1-1-2-6 1-8 2h-5l3-2 30-7z" fill="#F31A16"/>
<path transform="translate(425,374)" d="m0 0 48 2 20 2h31l25 2 5 1 19 1 10 1 27 1 39 5 50 4 24 1 14 1 32 1 29-3 28-1 28-2 10-2 12-5 5 1v4l-13 4h-2l-1 2h-3l-1 2-13 5-19 3-26 2h-42l-40-2-18-1h-27l-6-1-16-1-6-1-29-1-18-4h-14l-23-3-21-3-36-2-41-3-34-2-21-2-9-1-5-2v-1z" fill="#FEFDFD"/>
<path transform="translate(1768,690)" d="m0 0h55l-4 10-10 13-10 15-8 14-8 13-3-1-1-7v-4l-10 1-4-3 2-8h-7l-5-3-5-1-4-1-7 1-4 1v2h-2v2l-12 5-6 3-3 5-15 5-5 1v-2l-3-2-1-4h5l4-2 1-4 3-4h2l2-4 5-7 5-5 8-9h2l1-4 14-9 10-4 9-2z" fill="#DE1616"/>
<path transform="translate(168,474)" d="m0 0 4 1-3 1v11h-2l1 3-2 6v5h-1l-1 6h3v3l4 2 4-2 2-4 6-3 5-4 1 2 3-3 5 2-2 4-6 7v6l-6 9-8 18-2 9v19l7 36 1 6-4 3-9 1-9-4-4-5-7-16-7-27-1-7v-25l5-27 3-9 1 3-2 8 4-12h2v-2h2l1-5 4-10 3-3z" fill="#F31A16"/>
<path transform="translate(835,405)" d="m0 0h5l-4 2-5 3-8 1v2l-6 1v2l-3 2 2 4 7 3 9 3-1 5-6 4-7 3-13 5-28 6-19 4-20 3-15 2h-8v2l-12 1-2 1h-29l-43-2v-1l7-2 8-4h7v-2l11-1v-2h12l9-1h13l9-4 10-1 8-3 7 1 6-3v-1l10-1 6-3h3v-2l6-3 1-4h3v-2l6-5 16-4 12-1 6-2 7-2h7v-2z" fill="#DD1515"/>
<path transform="translate(311,382)" d="m0 0h17l5 1v3l-6 2-1 2-17 3-24 5h-2v2l-27 8-20 7-24 11-14 9-12 9-16 16-10 14-8 16-2 2-4 9-5 23-1 5-2 17 1 14-1 6-4 3-5-1-3-4-4-12-1-11 2-18 3-10 4-6 3-8 8-16 6-13 9-16 7-8 12-12 13-9 15-7 11-6 19-10 15-7 21-6 17-4 10-2z" fill="#FEFDFD"/>
<path transform="translate(1176,877)" d="m0 0 1 2-3 5 2 5v3l-3 10-3 9-2 4h-2l3 6-1 4h-2l2 6-3 2-2 2v3 2l3-3-2 5-6 10-7 11-9 13-7 10-9 13-6 7-4-3-6-1-4-8h-8l-13 5-2-1 2-5 5-6-7 6-13 8-19 7-10 2-11-1-12-9-2-5-2-14v-18l3-25 12-36 9-20 2-1-1 5-7 15-7 22-5 19-3 19v17l2 16 3 6 11 6 16-1 15-5 10-5 9-7 7-6h2v-2l8-7 7-8 8-7 6-8 5-4 7-9 11-14 10-14 7-10z" fill="#F31A16"/>
<path transform="translate(1149,687)" d="m0 0h16l19 2 18 4 15 7 12 7 12 11 7 11 6 6 7-1 2-4 12-17 9-8 16-8 16-4 16-2 16-1h43l-2 5-8 11-2-1 1-12 1-1h-23l-22 1-29 4-12 5-6 3-4 4-4 3h-2l1 2h2l1-3h1v5l-1 3-2 1-1 3h-5v-3l-3 4h-2l-1 5-4 4h-2l-2 6-2 4-4 1-2-2-2 15-5 13-6 10-9 14-5 9-6 8-3 5-2 6h-2l-2 5-7 10-2 5-4 4-7 10-3 9-2 4-4 2-4 6-1-2 13-22 8-11 14-23 14-22 8-13 9-15 5-13 1-7-3-7-8-7-8-4-10-4-16-2h-10l-14 3-23 9-12 7-2-1 6-4 1-6 5-5h2l1-2 6-3 5-5 12-5 2-2-4-4-8-2-11-1-2-1-12-2-16-2 2-1v-2l8-3h10l12-2v-2l-22 1-7 1h-8v-1z" fill="#F31A16"/>
<path transform="translate(1091,1175)" d="m0 0 2 4 4 2h2l-2 5-4 5-3 4-2 6-1 7h-2l-1 8 1 4 5 3 2-2h6v2h3v2l13-3 4 1 5-3h2v-2l9-2 4-2v-2l8-7 4-2v-2l5-5 6-7 3 1-2 5-10 13-14 16-9 10-3 3-6-1-13 9-5 3h-2v2l-16 9-7 1v2l-10 8-6 2-15 3-7 1-2-1 2-7 5-8 2-1 2-6h2l2-6v-2h-2v2l-8 7-5 4h-2l2-4 8-8 9-13 11-16 7-8 4-7h2l1-5 1-2h2l1-5 5-8z" fill="#DE1616"/>
<path transform="translate(857,1210)" d="m0 0 4 1-1 6-4 10-3 7-4 3-1 7-3 1 1 19 3 8 4 5 9 16 4 5 8 7 4 3v2h2l4 7v2l4 2 2 2 2 9-3 8-6 3h-16l-9-4-12-8v-2l-4-2-7-10-4-7-4-15-1-6 1-3 1-12 1-9 7-11 3-6 3-12 8-17z" fill="#FFFEFE"/>
<path transform="translate(1757,994)" d="m0 0 1 4-4 5v2l8 1 5-1h8l2 7 4-2-1 4-9 11-9 10-6 7-8 7-11 10-14 11-6 4-7 2h-4l-10 3-7 2-23 3-7-1-2-1h-16v-2h-2v-2h-2l-3-5v-3l-3-1v-3h-2l-6-7 3-1-6-5-3-8-4-16-1 5h-1l-1-10v-20l2 1 2-3 4 2 1 14 1 3v6l2 7 2 11h2l9 15 7 7v2l4 2 11 5 14-1 13-3h4v-2l6-3 7-5 4-1 10-6 8-8 7-6 10-4 1-7-2-1v-3l3-3-2 1h-9l2-3h2l2-5 5-6-1-5 10-6z" fill="#DE1616"/>
<path transform="translate(576,874)" d="m0 0h3l-2 14-3 12-4 9-2 14-3 19-1 20v12l2 20v16l-2 1-9-3-12-12-9-7-4-1-4 2-2 4h-2l-2 4-2-2 1-7 4-9 1-21 2-10 6-1 3 3 5-1 7-17 5-13 10-18 7-15 6-11z" fill="#FFFEFE"/>
<path transform="translate(908,974)" d="m0 0 3 1v3h2l1 7v20l-1 21-3 7-6 5-5 1h-9l-10 2-9 4-15 8-5 3-10 3-8 7-17 8-11 4-5-1 4-5 8-4 10-7 9-6 5-6 10-8 12-11 10-10 7-8 5-6h2l2-4 8-9 5-5 4-2 2-6 3-3h2z" fill="#FEFDFD"/>
<path transform="translate(889,838)" d="m0 0v3l-8 8-14 11-22 13-25 10-16 5-22 4-17 2-16 1h-38l-5-2-12-2-4-2-10-2 3-1 7-1 5-3 17-2 4 1 2-5 6-2 3 1 1-2v3l5-2 1 1 9-1 4-1 6-1 10-3 14-4h3v-2h6v2h2l1 4-2 2-2 5h-2v2l17-1 5-1 7-3 10-1 1-3 6-2 8-1 15-7 5-1v-2l8-3 7-6 10-4z" fill="#DE1616"/>
<path transform="translate(1089,986)" d="m0 0 2 1-6 7-2 4 5-1 10-4h8l3 5 2 3 7 2 1 4-9 11-7 7-7 8-10 10-5 4-7 4-7 6h-5l-1 2-8 6-3 3-5 2-3 1-3 3-13 6-8 3h-5l-2 1h-9l-10 2h-10l-15-3-4 1-8-4-5-2-12-14-2-4 1-2v-5h-2l-2-3v-3h-2l-2-7-2 3-4-20-1-7v-9l2 4 1 3 4 1 7 22 4 11v3h2l4 14 5 2 4 5 4 1v2l6 2 12 3 10 2 1-1 12-1 12-3 14-2 4-1h2l2-6 2-3 13-5 4-4h2l1-3 6-3 8-6 5-5 6-5 7-2 2-9-7-3-5-3-8 1-5 2-7-3-3-1 5-4h2v-2h2v-2l2-1-2-4 11-6 10-7z" fill="#DE1616"/>
<path transform="translate(1606,953)" d="m0 0h3v11l-1 6-2 34-2 16-8-1-4-4-3-6-6-4-13 2-10 8-8 9-11 8-13 10-5 5-5 3-1 2-6 1 2-4 7-5 5-5 3-5 16-17 14-18 10-13 8-11 7-10 3-4 5-3 2-2h5l5 1z" fill="#FEFDFD"/>
<path transform="translate(1358,691)" d="m0 0h26l-3 3-1 14-10 14-3-3 1-9h-17l-1-1h-8l-11 3-7 1-19 1-8 4-4 1-5 7-2 5-1 2h-2l-1 4-7 3h-3l-2 5-2 3-6 2-5 4-5-1v-11h3v2l4-1 1-4 3-6 6-5 1-4h2l2-4 2-1v3l4 1 1-4h2l-1-3h2l-1-4-3 3-2-1 5-5 5-2 1-3 15-7 15-3 17-2z" fill="#DE1616"/>
<path transform="translate(1766,678)" d="m0 0h32l15 3 4 3v4l-49 1-19 4-9 3-6 4-5 5-10 8-12 12-7 9-5 4-5-1-7-8-6-10-4-5 1-8 5 1h10l5-5 7-4 9-2 10-4 19-6 16-6z" fill="#FEFDFD"/>
<path transform="translate(515,945)" d="m0 0h5l2 4v11l-3 11-14 27-11 15-9 13-5 5-2-1 1-12-13-1v-2l-7-1 1-6 1-3-10 7-5 2-4-1 9-4 11-8 12-11 7-8 5-5 9-10 1-2h2l2-4 3-4h2l1-3 5-5z" fill="#F31A16"/>
<path transform="translate(1362,989)" d="m0 0h2v12l2 8 1 14 4 13 4 7 1 5 4 2 5 5 6 4 13 8 5 4 7 1 4 1 16-2 10-3 9-3 17-6h3v-2l11-6 6-3 5-3 6-1 3-2h3l1-4h2l2-4 5-1 4-2v2h-2v2h2v2l2 1-10 9-8 7-18 13-4 1-3 1-2-2-13 6-16 4-5 2-16 3-10-1-1 2-2-1v-2l-5 1-9-3-8-4-7-3-5-6-4-3v-2h-2l-2-5h-2l-2-5-2-1v-2l-3-1-1-6-1 1v6l2 1-3 1-6-21v-12l2-1 2-13v-6l1-1z" fill="#DE1616"/>
<path transform="translate(1482,729)" d="m0 0v3l-9 7-10 11-6 5-3 5h-2l-1 3-4 3h-2l-2 4-5 7-4 4h-2l-2 5-6 10-5 5-10 16-5 7-9 19-7 14-12 29-7 25-6 26-4 26-2 15-1 13v25l3 16 5 16-1-8h2l2 6 2 1v2l3 1 1 5h2l2 5h2l5 5 4 5 4 2 5 2 8 4 10 2h2v2l9-2v2l23-5 12-4 8-2 11-5 3 2h2l1-2v3l-23 12-20 7-12 2h-17l-18-4-12-6-13-13-10-19-6-22-1-6v-35l4-34 5-27 6-23 8-24 11-26 8-16 9-17 16-24 10-14 10-12 1-2h2l2-4 17-17 8-7 9-8z" fill="#F31A16"/>
<path transform="translate(913,1235)" d="m0 0 7 1v2l3 1v7l-1 3v13l3 8 1 11-3 7-6 2-10-1-6-3-3-4-1-6-5-2-2-5-2-4-1-3 2-10 2-3h2v-3l5-5h2l2-4 5-1z" fill="#CB1314"/>
<path transform="translate(1529,982)" d="m0 0v3l-2 5-4 3 3 2 5-3 6-2h10l5 3-1 9 2 2-1 4-9 11-11 11-7-1-2-1 1-6-1-3h2l-1-2-5-1-3 1-5-1h-3l-5 1h-3l-3-1-4-2 5-1 2-4-1-3-3-2 12-5 11-8 6-4z" fill="#DE1616"/>
<path transform="translate(467,564)" d="m0 0h1l-1 8h-2l-1 7-3 5-4 8v5h-2l-1 4-6 10-5 9-2 8-3 6-2 5-3 5-3 3-1 4-2-1 1 6-2 4-1 4h-2l-2 8-3 4v2l-2 1-3 7-2 6-1 2h-3l-1-5h2l1-5h2l-3-13-2 2 1-5 16-36 11-24 10-1-1-3 2-1 2-6 2-1 2-10h2l1-4v-3h2l1-3 4-4v-2l5-4z" fill="#DE1615"/>
<path transform="translate(294,1039)" d="m0 0h2v3h2l4 6 1 7 3 8h-2v2h2l-1 4 2 2 4 7v2h2v2h2v2h2l1 3 3 2v2l6 1 5 3 2 1 13 1 5 1 2-1h10l24-2h6l2 1v2l3 1-18 6-9 2-19 2-19-1-10-4-11-6-2-4-8-11-4-8-3-14-2-16z" fill="#F31A16"/>
<path transform="translate(865,703)" d="m0 0 6 2 9 6 5 2 12 11 9 13 6 12 4 17v22l-6 19-8 16-3 3 2-6 8-19 3-10v-10l1-11-2-13-5-15-4-6-3 2-5-1-2-1v-2l-8-4-5 1-3 7-3 16-5-1v2h-2l-2-9h-2l-1-9 1 2 5-1-2-14v-6h2l1-3h4v-2l2-1-6-3-1-3-2-1z" fill="#DE1615"/>
<path transform="translate(1876,876)" d="m0 0 3 2-1 9-6 18-9 12-12 21-3 5-6 9-5 5-7 9h-5l-2-2 1-6 6-8 4-9 11-17 6-10 4-4 6-8 7-10 3-10 3-5z" fill="#FEFDFD"/>
<path transform="translate(877,849)" d="m0 0 2 1-9 8-20 12-14 7-19 7-13 4-22 4-17 2-16 1h-38l-5-2-12-2-4-2-10-2 3-1 13 2h16l3-1 5 1h16l5-3 5 1h8l5 2 5-2 8 1 17-1 5-2 11-2 17-6 5-2 3-2 6-1 2 1v-2l7-1 14-7 11-7z" fill="#F31A16"/>
<path transform="translate(1143,1220)" d="m0 0v3l-2 4h-2l-2 5-4 5h-2l-1 3h-2l-2 4-4 5-8 7-7 8h-2v2l-11 8-11 9h-2v2l-20 12-23 8-4 1-2-1 1-4 7-3 8-4 14-8 8-4 11-8 5-5 13-10 13-11 10-9 12-11z" fill="#FEFDFD"/>
<path transform="translate(1289,694)" d="m0 0h5l-2 2-10 3v2h-2l-2 5-4 6-1 2h-2l-2 4-6 5-8 1-5-3-7-2-7-7-2-9 1-1h11l4-5 4-2h10l5 2h9l7-1z" fill="#FFFEFE"/>
<path transform="translate(245,478)" d="m0 0h4l-1 5-13 8-10 5-9 7h-2l-2 4-5 5-9 10-7 10-8 15-3 3h-4l-1-5 5-11 1-6 6-10 11-12 13-12 12-7 11-4 9-4z" fill="#FEFCFD"/>
<path transform="translate(1193,852)" d="m0 0 3 3h3l-2 6-4 8-3 12v8h-2l-1 5 1 3-6 12-4 10-8 13-3 5-5 4 1-4v-3l3-3v-2-4h2l-1-6-1-4h2l-1-3 3-2 1-7 3-7 2-6-3-4 2-5 7-11 5-3 1-7z" fill="#DE1616"/>
<path transform="translate(678,733)" d="m0 0h2l-2 9-1 3-4 2-2 3h-3l-2 4-10 10-5 4-6 8-6 4-8 12-3 2h-7l1-5 5-10 12-16 19-19 11-7z" fill="#FFFEFE"/>
<path transform="translate(1138,677)" d="m0 0h20l16 1 8 4-2 4-40 1-23 4-13 4-6 2v2l-6 1-2-1v2l-6-3 1-3 22-11 19-6z" fill="#FEFDFD"/>
<path transform="translate(373,388)" d="m0 0h57l46 2 41 3 65 6 77 5 83 4h44l40-3 14-1v1l-21 3-32 2h-49l-63-3-103-6-57-6-49-3-33-1h-59l-46 2-27 4h-5l4-2 26-4 23-2zm472 14 3 1zm-5 1h5v1h-5z" fill="#F41B17"/>
<path transform="translate(1197,884)" d="m0 0h2l-1 10-5 16-28 78-9 27-6 15-9 27-7 20-7 19-8 20-7 17-12 26-12 25-5 8-1 3h-2l-2 7h-2l-2 5-6 8-7 9-2 3h-2l2-5 11-15 11-18 9-16 14-28 12-28 12-32 7-20 6-17 8-23 8-21 11-32 10-27 6-18 8-21-3-1 1-3h2l3-10v-3l-6 9-7 14-1-3 9-17 5-7z" fill="#F41B17"/>
<path transform="translate(579,902)" d="m0 0 2 1-3 20h-2v2h3l1 6-1 4v11l-1 1v7l-1 3v11l3 3v12l2 10 1 1 3 20 2 3v10l-3 5-2-3-5-13-4-20-2-19v-37l3-20 2-6z" fill="#DD1515"/>
<path transform="translate(1759,799)" d="m0 0 1 2-11 24-15 36-10 25-14 42-2 10-5 18-2 11v29l8 11 5 3h9l13-5 17-10v3l-8 6-14 7-12 4h-5l-8-6-9-11-1-4v-25l6-24 7-26 6-18 8-21 6-15 6-14 9-20 8-19z" fill="#F41B17"/>
<path transform="translate(1567,678)" d="m0 0h41l9 3 1 2-2 3h-31l-22 3-13 3-15 5-2 1-9-2 4-3 14-8 14-5z" fill="#FFFEFE"/>
<path transform="translate(1336,679)" d="m0 0h15l21 2 9 2 3 3-3 2-35 1-17 1-19 3h-5v2l-8-1-3-1 16-8 15-5z" fill="#FEFDFD"/>
<path transform="translate(800,685)" d="m0 0 1 2h2v2l-6 2h-11l-1 2-16 4-15 4-16 4-9 3-3 2 1 2-8 4-6-2-6 3h-2l1-3 9-6 16-7 14-7 18-5 15-3z" fill="#FEFDFD"/>
<path transform="translate(1482,729)" d="m0 0v3l-9 7-10 11-6 5-3 5h-2l-1 3-4 3h-2l-2 4-5 7-4 4h-2l-2 5-6 10-5 5-10 16-5 7-9 19-7 14-12 29-7 25-6 26-4 26-2 15-1 13v25l3 16 5 17 2 6-3-3-4-11-5-21v-35l4-34 5-27 6-23 8-24 11-26 8-16 9-17 16-24 10-14 10-12 1-2h2l2-4 17-17 8-7 9-8z" fill="#F41B17"/>
<path transform="translate(1054,722)" d="m0 0 2 1-11 10-10 7-7 9-6 4-3 4-1 4-3 3-3 1-6 7-4 6-5 6h-2l-1 5h-2l-2 7h-3l-1 4h-3v3l-4 4-3 7-3 3-1 3-5 5-2 6h-2l-1 8h-3v3l-3 1-7 12-3 9-7 11-7 14-3 7-5 8h-2l2-6 5-9 11-21 8-16 6-11 15-23 13-21 8-10 6-8 8-10 5-6 5-5 8-9 4-3h2l2-4 7-7 9-7z" fill="#F41B17"/>
<path transform="translate(1049,715)" d="m0 0h2l-2 6-4 6-2 2-9 6-7 9-8 5-7 8-7 3-1-3 4-8 9-11 6-7h2v-2l13-10z" fill="#FEFDFD"/>
<path transform="translate(1337,777)" d="m0 0 1 3-14 29-5 13-5 11-11 28-11 29-6 16-7 20-7 19-7 21-8 21-7 20-11 28-15 40-6 13-2 5-1-3 7-17 13-34 10-27 6-15 7-20 8-21 10-30 7-19 15-40 13-33 8-19 13-28z" fill="#F41B17"/>
<path transform="translate(611,824)" d="m0 0 1 2-3 5-1 4-3 7-4 4-6 14-10 24-6 23-2 10-3 17-1 6v37l3 26 4 16 4 10-1 3-4-9-5-16-4-22-1-10v-32l3-21 6-25 7-21 12-27 11-21z" fill="#F41B17"/>
<path transform="translate(375,452)" d="m0 0h80l50 2 2 2h-37l-39-1h-48l-39 2-27 3-36 7-9 1 4-2 32-7 26-4 21-2z" fill="#F41B17"/>
<path transform="translate(894,401)" d="m0 0 4 1v8l-4 11-7 10-11 9-8 6-11 4-8 1v-2l5-2v-2l10-6 14-12 6-7 3-3 5-13z" fill="#FEFDFD"/>
<path transform="translate(860,739)" d="m0 0 2 1 1 6v13l-4 17-8 16-6 11-5 5-9 12-17 17-17 13-10 6-19 7-15 4-6 1h-23l-9-3-8-4-4-5-1-4v-12l2-4v13l3 9 12 6 3 1h25l15-3 21-7 13-8 12-9 10-9 7-7 7-8 13-17 11-21 4-15z" fill="#F41B17"/>
<path transform="translate(1768,690)" d="m0 0h55l-4 10-5 6-9-3v-2l-4 2h-11l-2-4h-2l-1-5h5v-2h-18l-11 1-10 2-4-1 12-3z" fill="#F31A16"/>
<path transform="translate(940,1220)" d="m0 0 2 2-1 5-5 24-2 18-8-1-2-7v-11l3-10 4-4 3-8v-4z" fill="#FFFEFE"/>
<path transform="translate(1039,881)" d="m0 0 1 3-8 17-7 22-5 19-3 19v17l2 16 3 6 11 6 16-1 24-8-1 3-15 6-16 4-11-1-12-9-2-5-2-14v-18l3-25 12-36 9-20z" fill="#F41B17"/>
<path transform="translate(1624,860)" d="m0 0 2 1-1 4-4 2-1 6 2 1-3 8-2 4-1 10 2 1-1 8-6 10-2 2v-2l-2-1-1-4 1-5-1-8-1-3-4 1 6-8 2-3h2l1-6 3-4 3-5 2-3h2l1-5z" fill="#DE1616"/>
<path transform="translate(1056,1207)" d="m0 0h4l-1 9-6 10-8 7h-2l-1 5-4 3-6 3-2-1 4-11 4-7h2v-2h2l2-4 9-10z" fill="#FFFEFE"/>
<path transform="translate(948,1210)" d="m0 0 1 3-2 5 2 2 2-4 1 13-2 14h-1l-1-8-3 19-3 8 3-1-2 5 4 1-1 8-5-2-2 1-2-11 1-6 4-17 2-12 1-8-4-2-3 1v-2l7-3z" fill="#FEFDFD"/>
<path transform="translate(705,725)" d="m0 0 2 1-20 15-6 4-4 5h-2v2l-8 7-7 8-4 3h-2l-2 4-1 4-6 5-1 2h-2l-2 4-7 10-4 4h-2l-2 5-3 6h-2l-2 4-5 6-1-2 13-19 11-15 5-7 5-4 7-9 7-6 7-8 15-13 17-12z" fill="#F41B17"/>
<path transform="translate(272,402)" d="m0 0h7l-3 4-11 2-3 3h-6l-1 3-4 1-6 3-9 2-5 2-4 1-4 2-5 3-9 5h-3l1-5 16-8 18-8z" fill="#D21414"/>
<path transform="translate(1467,897)" d="m0 0 1 3-6 17-7 27-1 10-1 2-1 10v11l3 17 3 6 12 6 15-1 9-3h3v2l-11 4-5 1h-13l-12-7-4-6-3-16v-17l4-25 7-24z" fill="#F41B17"/>
<path transform="translate(1684,755)" d="m0 0 1 3-5 13-10 15-7 12-8 13-6 10-5 7-6 11-10 15-6 12h-2l-2 4-6 11-1 3h-2l-2 4-6 7v-3l9-14 6-10 10-15 7-12 6-9 11-18 17-28 12-20z" fill="#F41B17"/>
<path transform="translate(922,906)" d="m0 0 1 4-1 4 1 6h-2v3h-2v5h-2v7l-2 7-2 1v5l2 6v4l-4 3-2-5-4-5v-5l5-10v-5l-1-4 5-7 2-1z" fill="#DE1616"/>
<path transform="translate(1618,901)" d="m0 0 4 1 1 9-4 26-4 20-3 28-1 13-2 1v-15l3-30 5-27 2-11v-7l-3 1-9 17-2-1 8-17z" fill="#F41B17"/>
<path transform="translate(1247,762)" d="m0 0 1 4-7 13-7 10-9 15-7 10-3 8h-2l-2 5-7 10-2 5-4 4-7 10-3 9-2 4-4 2-4 6-1-2 13-22 8-11 14-23 14-22 8-13 9-15 3-6z" fill="#F41B17"/>
<path transform="translate(1158,1020)" d="m0 0h2l1 3-2 10-3 9-4 10-6 9-2-1v-9l-1-2 5-15 5-5 3-4z" fill="#DD1515"/>
<path transform="translate(181,524)" d="m0 0h2l-3 9-4 8h-2l-3 18-1 11-2-1-3-12v-13l2-4h2l2-4 3-7 4-4z" fill="#DF1616"/>
<path transform="translate(344,448)" d="m0 0 6 1h13l1 1 17 1v1l-6 1-30 2-25 3h-6l4-2v-2l12-3 9-1z" fill="#CC1314"/>
<path transform="translate(1348,690)" d="m0 0h43l-2 5-8 11-2-1 1-12 1-1h-23l-22 1-29 4-12 5-6 2 4-4 13-5 17-3z" fill="#F41B17"/>
<path transform="translate(897,726)" d="m0 0 5 5 6 9 4 9 4 17v22l-6 19-8 16-3 3 2-6 8-19 3-10v-10l1-11-2-13-5-15-6-10-3-4z" fill="#F41B17"/>
<path transform="translate(800,735)" d="m0 0 4 2-2 4-13 8-10 6-7 3-1-4 6-5 4-4 10-6z" fill="#FFFEFE"/>
<path transform="translate(677,887)" d="m0 0 3 1-4 4-5 16-5 19-5 26-1 10v22l4 20-1 4-4-16-2-16v-14l2-18 5-22 5-17 5-15z" fill="#F41B17"/>
<path transform="translate(1726,703)" d="m0 0 4 1-11 9-12 12-7 9-5 4-5-1-7-8-4-7 1-2 3 4v2l7 2 1 1h7l10-9h2v-2h2v-2l8-7z" fill="#FCF1F2"/>
<path transform="translate(602,461)" d="m0 0h27l43 2h29l4-1 2 2-1 2h-28l-62-3h-13l-7 3-3 2 2-4z" fill="#F41B17"/>
<path transform="translate(582,1038)" d="m0 0 3 1v2l3 1v2l5 5 2 3v3h2l5 5-1 4-4-1v3l-5-4-8-10-3-9z" fill="#FEFDFD"/>
<path transform="translate(884,847)" d="m0 0h2l-1 6-8 8-9 7-10 5-3-1 1-4 3-2h3v-2l9-6h2l1-3h2v-2z" fill="#FFFEFE"/>
<path transform="translate(1126 1e3)" d="m0 0 2 1-2 6-2 5-11 11-9 7-5 4-2-1 11-12 3-5 9-11z" fill="#FEFCFC"/>
<path transform="translate(1574,750)" d="m0 0 2 4-8 7-4 5h-2l-2 4-3 3-5 3-2 3h-2l-2 4h-4l2-4 14-16 11-9z" fill="#FFFEFE"/>
<path transform="translate(1805,730)" d="m0 0 1 2-5 9-8 14-4 5-3 1-2-1 1-7h2l1-4 8-15 2-1 1 4h2z" fill="#FFFEFE"/>
<path transform="translate(930,1225)" d="m0 0 1 2-7 20-1 4v10l5 12 4 6 5 4 11 4 5 1h16l14-3 8-1-2 2-15 4-16 1-12-2-11-4-6-5-7-14-1-4v-13l7-21z" fill="#F41B17"/>
<path transform="translate(489,1024)" d="m0 0 1 2-6 11-7 7-7 8-8 6-5 5-3-1 6-6h2l2-4 12-12 2-6 2-3 5-3z" fill="#FEFDFD"/>
<path transform="translate(795,1024)" d="m0 0 2 1-1 4-3 1-2 4-5 3-4 1h-9v-3l9-6z" fill="#FFFEFE"/>
<path transform="translate(435,611)" d="m0 0 2 1v4l1 5-4 8v3l-3 3h-4v-2h-2l1-7 5-11h2z" fill="#CF1314"/>
<path transform="translate(397,710)" d="m0 0 3 1 1 6-4 6 2 1-4 7-1 3-5 5 1 2h-3v2h-4l-1-5 6-5 4-6 2-10 1-4h2z" fill="#DD1515"/>
<path transform="translate(419,645)" d="m0 0 2 1 2 3-1 2 3 1-3 1-5 15-3-2h-3-1l1-7 5-11h2z" fill="#CF1314"/>
<path transform="translate(611,809)" d="m0 0 2 2v6l-1 3-4 4-1 4-7 1-1-5 6-10z" fill="#FEFDFD"/>
<path transform="translate(1806,719)" d="m0 0 1 2h5l-5 9-3 3-3 5-4-2v-2l-3 3 1-4 7-11z" fill="#FEFAFB"/>
<path transform="translate(575,503)" d="m0 0h1v7l-6 11-4 9-3 1-1-4 3-9 7-13z" fill="#FEFBFB"/>
<path transform="translate(1143,1062)" d="m0 0h1v8l-5 12-3 4-3-7 1-5h2l3-9 1-2z" fill="#DD1515"/>
<path transform="translate(722,815)" d="m0 0h1l-1 9-6 10h-3l-1-7 3-6 4-5z" fill="#FFFEFE"/>
<path transform="translate(529,598)" d="m0 0 3 1-1 8-5 9-4 1-1-2 4-10 3-6z" fill="#FFFEFE"/>
<path transform="translate(1124,1237)" d="m0 0 2 1-12 12-13 10-7 6h-2v2l-8 5-2-1 17-13 13-11 10-9z" fill="#FCF1F2"/>
<path transform="translate(1098,785)" d="m0 0 3 1-11 14-6 8-2-3 4-6 1-3h2l3-6h2l2-4z" fill="#E51716"/>
<path transform="translate(1805,986)" d="m0 0h2l-2 5-7 7-5 6-3-1 2-4 6-8 4-2z" fill="#FEFAFB"/>
<path transform="translate(881,421)" d="m0 0 1 3-8 8-11 9-4-1 6-7 7-3 7-7h2z" fill="#E11616"/>
<path transform="translate(705,859)" d="m0 0 14 7 2 4-13-1-2-3v-3z" fill="#DE1616"/>
<path transform="translate(148,600)" d="m0 0 5 2 2 5-1 5-5-1-3-8z" fill="#FEFBFB"/>
<path transform="translate(407,696)" d="m0 0h1l-1 7-2 2-1 2-2-1-1 3-4-2v-3l5-4 2-3z" fill="#DD1515"/>
<path transform="translate(313,394)" d="m0 0h11l-3 3h-6v2h-12l1-2h2v-2z" fill="#CB1314"/>
<path transform="translate(1516,703)" d="m0 0 3 1-21 11-3 1v-2h2v-2h2l1-3 7-3z" fill="#FFFEFE"/>
<path transform="translate(763,760)" d="m0 0 2 2-1 4-4 4v2l-6 1 2-6 5-5z" fill="#FFFEFE"/>
<path transform="translate(877,849)" d="m0 0 2 1-9 8-18 11-2-1 10-7 10-6z" fill="#F41B17"/>
<path transform="translate(396,687)" d="m0 0 2 1-1 5-8 18-1-3 3-10 4-8z" fill="#FCF1F2"/>
<path transform="translate(408,661)" d="m0 0h2l-3 9-3 7-2-1 1-10 4-1z" fill="#FCF2F3"/>
<path transform="translate(1511,1047)" d="m0 0 2 1-7 7-14 10-2-1 5-4 1-3 9-4z" fill="#F31A16"/>
<path transform="translate(1527,1028)" d="m0 0 1 2 4-1-2 4-4 4h-3v-2h-2v-2z" fill="#D21414"/>
<path transform="translate(1069,707)" d="m0 0h5l-4 4-10 5h-3l5-6z" fill="#FFFEFE"/>
<path transform="translate(1816,703)" d="m0 0h2l1 4-3 6-3 1-2-2 3-7z" fill="#FEFCFC"/>
<path transform="translate(1588,949)" d="m0 0h4v5l-4 5h-2l-1-6z" fill="#E11616"/>
<path transform="translate(579,902)" d="m0 0 2 1-3 20h-2l-1 2 1-8z" fill="#DE1616"/>
<path transform="translate(1768,1030)" d="m0 0 1 2-3 5-3 3h-2v2l-5 2 2-5 3-1z" fill="#FEFDFD"/>
<path transform="translate(1157,946)" d="m0 0h2l-1 6-3 5-3 1v-7h2v-2h3z" fill="#E31716"/>
<path transform="translate(190,440)" d="m0 0 3 1-10 9-5 4v-3l10-10z" fill="#D91515"/>
<path transform="translate(299,1078)" d="m0 0 3 1 6 10 6 8-4-2-8-10-3-5z" fill="#E81816"/>
<path transform="translate(932,1227)" d="m0 0 1 3-2 7-1 2-3-1 1-6 2-3h2z" fill="#FCF4F5"/>
<path transform="translate(1037,1074)" d="m0 0m-2 1h2v2l-16 7-3-1 5-3z" fill="#F41B17"/>
<path transform="translate(464,999)" d="m0 0m-1 1m-1 1m-1 1m-2 1h2l-1 3-11 7-7 1 3-2 11-6z" fill="#F41B17"/>
<path transform="translate(1176,877)" d="m0 0 1 2-8 13-2 3h-2l2-5z" fill="#F41B17"/>
<path transform="translate(369,755)" d="m0 0 1 2-7 18-2 2v-5l3-5 2-6z" fill="#FCF1F2"/>
<path transform="translate(1534,791)" d="m0 0 2 1-1 5-6 4-1-3z" fill="#FFFEFE"/>
<path transform="translate(1169,930)" d="m0 0 1 2-3 5-5 4 1-4v-3l3-3z" fill="#E31716"/>
<path transform="translate(381,726)" d="m0 0 1 3-7 16-2-1 2-7 3-5 2-5z" fill="#FCF1F2"/>
<path transform="translate(1803,729)" d="m0 0h2l-2 6-2 3-4-2 3-5z" fill="#FCF1F2"/>
<path transform="translate(594,860)" d="m0 0 2 1v5l-4 7-3-1z" fill="#DE1616"/>
<path transform="translate(912,778)" d="m0 0 1 3v10l-3 10h-1v-8l2-13z" fill="#DE1616"/>
<path transform="translate(1073,710)" d="m0 0 2 1-16 11-3-1 10-7z" fill="#F41B17"/>
<path transform="translate(881,421)" d="m0 0 1 3-8 8-5 2v-2l8-7 4-2z" fill="#DF1615"/>
<path transform="translate(1367,966)" d="m0 0h2l-2 20h-1l-1-17z" fill="#DE1616"/>
<path transform="translate(302,458)" d="m0 0h12v1l-15 3h-5l3-2z" fill="#CB1314"/>
<path transform="translate(1782,1014)" d="m0 0 1 2-3 6-5 3 1-4 3-5z" fill="#FFFEFE"/>
<path transform="translate(1756,695)" d="m0 0 9 2-4 2-3-1-1 2h-3l-1-3h3z" fill="#F41B17"/>
<path transform="translate(596,467)" d="m0 0 2 1-1 4-3 3h-2l1-5z" fill="#FFFEFE"/>
<path transform="translate(1135,1225)" d="m0 0v3l-9 9-2-1 6-7v-2l4-1z" fill="#F31A16"/>
<path transform="translate(954,1218)" d="m0 0h1l1 12h-2l-2-7z" fill="#FFFEFE"/>
<path transform="translate(895,1191)" d="m0 0m-3 1h3v2l-9 4-2-1 5-4z" fill="#F41B17"/>
<path transform="translate(1534,787)" d="m0 0v3l-6 7-2-3 5-6z" fill="#E71816"/>
<path transform="translate(1126,761)" d="m0 0 1 4-6 5-1-3 5-5z" fill="#FFFEFE"/>
</svg>
